<svg width="197" height="32" viewBox="0 0 197 32" fill="none" xmlns="http://www.w3.org/2000/svg">
<path d="M0 5.83375C0 3.31093 1.87387 1.1807 4.3761 0.858988L10.7386 0.0409495C11.1633 -0.0136497 11.5932 -0.0136499 12.0178 0.0409493L18.3804 0.858988C20.8826 1.1807 22.7565 3.31093 22.7565 5.83375V20.0081C22.7565 22.425 21.0329 24.4982 18.6566 24.9395L12.2941 26.1211C11.6887 26.2335 11.0678 26.2335 10.4624 26.1211L4.09988 24.9395C1.72362 24.4982 0 22.425 0 20.0081V5.83375Z" fill="#FF9A00"/>
<path d="M13.0036 13.125C13.0036 17.7931 12.2759 21.5774 11.3782 21.5774C10.4805 21.5774 9.75272 17.7931 9.75272 13.125C9.75272 8.45682 10.4805 4.67255 11.3782 4.67255C12.2759 4.67255 13.0036 8.45682 13.0036 13.125Z" fill="white"/>
<path d="M11.3782 14.7504C6.71005 14.7504 2.92578 14.0227 2.92578 13.125C2.92578 12.2272 6.71005 11.4995 11.3782 11.4995C16.0463 11.4995 19.8306 12.2272 19.8306 13.125C19.8306 14.0227 16.0463 14.7504 11.3782 14.7504Z" fill="white"/>
<path d="M33 26.0499H33.424V29.7479L36.5788 26.0499H36.9519V30.3878H36.5279V26.6898L33.3731 30.3878H33V26.0499Z" fill="black"/>
<path d="M38.7806 26.0499H39.2047V28.0277H42.2067V26.0499H42.6308V30.3878H42.2067V28.3934H39.2047V30.3878H38.7806V26.0499Z" fill="black"/>
<path d="M47.4216 26.4238H45.6916V30.3878H45.2675V26.4238H43.5375V26.0499H47.4216V26.4238Z" fill="black"/>
<path d="M51.8962 28.3186H48.0885C48.0998 28.6565 48.1874 28.9584 48.3514 29.2244C48.5153 29.4848 48.7358 29.687 49.0129 29.831C49.2955 29.9751 49.6121 30.0471 49.9627 30.0471C50.251 30.0471 50.5167 29.9972 50.7598 29.8975C51.0086 29.7922 51.2149 29.6399 51.3789 29.4404L51.6248 29.7147C51.4326 29.9418 51.1895 30.1163 50.8955 30.2382C50.6072 30.3601 50.2934 30.4211 49.9542 30.4211C49.5132 30.4211 49.1203 30.3269 48.7754 30.1385C48.4305 29.9501 48.1592 29.6898 47.9613 29.3573C47.7691 29.0249 47.6729 28.6454 47.6729 28.2188C47.6729 27.7978 47.7634 27.4211 47.9443 27.0886C48.1309 26.7507 48.3853 26.4875 48.7076 26.2992C49.0298 26.1108 49.3916 26.0166 49.7931 26.0166C50.1945 26.0166 50.5535 26.1108 50.8701 26.2992C51.1923 26.482 51.4439 26.7396 51.6248 27.072C51.8114 27.4044 51.9047 27.7812 51.9047 28.2022L51.8962 28.3186ZM49.7931 26.3823C49.4821 26.3823 49.2023 26.4515 48.9535 26.59C48.7047 26.723 48.504 26.9141 48.3514 27.1634C48.2044 27.4072 48.1196 27.6842 48.097 27.9945H51.4892C51.4722 27.6842 51.3874 27.4072 51.2347 27.1634C51.0821 26.9197 50.8814 26.7285 50.6326 26.59C50.3839 26.4515 50.104 26.3823 49.7931 26.3823Z" fill="black"/>
<path d="M55.5206 26.0166C55.9333 26.0166 56.3064 26.1108 56.64 26.2992C56.9735 26.4875 57.2336 26.7479 57.4202 27.0803C57.6124 27.4127 57.7085 27.7922 57.7085 28.2188C57.7085 28.6454 57.6124 29.0277 57.4202 29.3657C57.2336 29.6981 56.9735 29.9584 56.64 30.1468C56.3064 30.3296 55.9333 30.4211 55.5206 30.4211C55.1305 30.4211 54.7771 30.3324 54.4605 30.1551C54.1439 29.9723 53.898 29.7202 53.7227 29.3989V32H53.2987V26.0499H53.7057V27.072C53.881 26.7396 54.1269 26.482 54.4435 26.2992C54.7658 26.1108 55.1248 26.0166 55.5206 26.0166ZM55.4951 30.0471C55.8343 30.0471 56.1396 29.9695 56.411 29.8144C56.6824 29.6593 56.8944 29.4432 57.047 29.1662C57.2053 28.8892 57.2845 28.5734 57.2845 28.2188C57.2845 27.8643 57.2053 27.5485 57.047 27.2715C56.8944 26.9945 56.6824 26.7784 56.411 26.6233C56.1396 26.4681 55.8343 26.3906 55.4951 26.3906C55.1559 26.3906 54.8506 26.4681 54.5792 26.6233C54.3135 26.7784 54.1015 26.9945 53.9432 27.2715C53.7905 27.5485 53.7142 27.8643 53.7142 28.2188C53.7142 28.5734 53.7905 28.8892 53.9432 29.1662C54.1015 29.4432 54.3135 29.6593 54.5792 29.8144C54.8506 29.9695 55.1559 30.0471 55.4951 30.0471Z" fill="black"/>
<path d="M59.0874 26.0499H59.5114V28.0277H62.5135V26.0499H62.9375V30.3878H62.5135V28.3934H59.5114V30.3878H59.0874V26.0499Z" fill="black"/>
<path d="M68.5425 28.3186H64.7347C64.746 28.6565 64.8337 28.9584 64.9976 29.2244C65.1616 29.4848 65.3821 29.687 65.6591 29.831C65.9418 29.9751 66.2584 30.0471 66.6089 30.0471C66.8972 30.0471 67.163 29.9972 67.4061 29.8975C67.6548 29.7922 67.8612 29.6399 68.0251 29.4404L68.2711 29.7147C68.0789 29.9418 67.8357 30.1163 67.5418 30.2382C67.2534 30.3601 66.9396 30.4211 66.6004 30.4211C66.1594 30.4211 65.7665 30.3269 65.4216 30.1385C65.0768 29.9501 64.8054 29.6898 64.6075 29.3573C64.4153 29.0249 64.3192 28.6454 64.3192 28.2188C64.3192 27.7978 64.4096 27.4211 64.5906 27.0886C64.7771 26.7507 65.0315 26.4875 65.3538 26.2992C65.6761 26.1108 66.0379 26.0166 66.4393 26.0166C66.8407 26.0166 67.1997 26.1108 67.5163 26.2992C67.8386 26.482 68.0902 26.7396 68.2711 27.072C68.4576 27.4044 68.5509 27.7812 68.5509 28.2022L68.5425 28.3186ZM66.4393 26.3823C66.1283 26.3823 65.8485 26.4515 65.5997 26.59C65.351 26.723 65.1503 26.9141 64.9976 27.1634C64.8506 27.4072 64.7658 27.6842 64.7432 27.9945H68.1354C68.1184 27.6842 68.0336 27.4072 67.881 27.1634C67.7283 26.9197 67.5276 26.7285 67.2789 26.59C67.0301 26.4515 66.7502 26.3823 66.4393 26.3823Z" fill="black"/>
<path d="M72.6891 26.4238H70.9591V30.3878H70.535V26.4238H68.805V26.0499H72.6891V26.4238Z" fill="black"/>
<path d="M72.9832 27.9695H75.1627V28.3435H72.9832V27.9695Z" fill="black"/>
<path d="M81.4201 26.0499V30.3878H81.03V26.7147L79.1049 29.831H78.9099L76.9933 26.723V30.3878H76.6032V26.0499H77.0188L79.0201 29.3324L81.03 26.0499H81.4201Z" fill="black"/>
<path d="M84.7205 26.0166C85.2689 26.0166 85.6901 26.1551 85.9841 26.4321C86.2781 26.7036 86.4251 27.1053 86.4251 27.6371V30.3878H86.0181V29.615C85.8767 29.8698 85.6704 30.0693 85.399 30.2133C85.1276 30.3518 84.8025 30.4211 84.4237 30.4211C83.9319 30.4211 83.5418 30.3075 83.2534 30.0803C82.9707 29.8532 82.8294 29.554 82.8294 29.1828C82.8294 28.8227 82.9594 28.5319 83.2195 28.3102C83.4852 28.0831 83.9064 27.9695 84.4831 27.9695H86.0011V27.6205C86.0011 27.2161 85.888 26.9086 85.6619 26.6981C85.4414 26.4875 85.1163 26.3823 84.6866 26.3823C84.3926 26.3823 84.11 26.4321 83.8386 26.5319C83.5729 26.6316 83.3467 26.7645 83.1601 26.9307L82.9481 26.6316C83.1686 26.4377 83.4343 26.2881 83.7453 26.1828C84.0562 26.072 84.3813 26.0166 84.7205 26.0166ZM84.4831 30.0803C84.8506 30.0803 85.1615 29.9972 85.4159 29.831C85.676 29.6648 85.8711 29.4238 86.0011 29.108V28.2936H84.4916C84.0562 28.2936 83.7396 28.3712 83.5418 28.5263C83.3495 28.6814 83.2534 28.8947 83.2534 29.1662C83.2534 29.4488 83.3608 29.6731 83.5757 29.8393C83.7905 30 84.093 30.0803 84.4831 30.0803Z" fill="black"/>
<path d="M91.1754 26.4238H88.5719V30.3878H88.1479V26.0499H91.1754V26.4238Z" fill="black"/>
<path d="M93.5488 26.0166C94.0972 26.0166 94.5184 26.1551 94.8124 26.4321C95.1064 26.7036 95.2534 27.1053 95.2534 27.6371V30.3878H94.8464V29.615C94.705 29.8698 94.4987 30.0693 94.2273 30.2133C93.9559 30.3518 93.6308 30.4211 93.252 30.4211C92.7602 30.4211 92.3701 30.3075 92.0817 30.0803C91.799 29.8532 91.6577 29.554 91.6577 29.1828C91.6577 28.8227 91.7877 28.5319 92.0478 28.3102C92.3135 28.0831 92.7347 27.9695 93.3114 27.9695H94.8294V27.6205C94.8294 27.2161 94.7163 26.9086 94.4902 26.6981C94.2697 26.4875 93.9446 26.3823 93.5149 26.3823C93.2209 26.3823 92.9383 26.4321 92.6669 26.5319C92.4012 26.6316 92.175 26.7645 91.9884 26.9307L91.7764 26.6316C91.9969 26.4377 92.2626 26.2881 92.5736 26.1828C92.8845 26.072 93.2096 26.0166 93.5488 26.0166ZM93.3114 30.0803C93.6789 30.0803 93.9898 29.9972 94.2442 29.831C94.5043 29.6648 94.6994 29.4238 94.8294 29.108V28.2936H93.3199C92.8845 28.2936 92.5679 28.3712 92.3701 28.5263C92.1778 28.6814 92.0817 28.8947 92.0817 29.1662C92.0817 29.4488 92.1891 29.6731 92.404 29.8393C92.6188 30 92.9213 30.0803 93.3114 30.0803Z" fill="black"/>
<path d="M98.8275 28.1274C99.1555 28.1884 99.407 28.3102 99.5823 28.4931C99.7632 28.6704 99.8537 28.8892 99.8537 29.1496C99.8537 29.4044 99.766 29.6288 99.5908 29.8227C99.4212 30.0166 99.1894 30.1662 98.8954 30.2715C98.6014 30.3767 98.282 30.4294 97.9371 30.4294C97.6205 30.4294 97.3095 30.3823 97.0042 30.2881C96.7046 30.1884 96.4417 30.0471 96.2156 29.8643L96.3852 29.5568C96.583 29.723 96.8177 29.8504 97.089 29.9391C97.3661 30.0277 97.6459 30.072 97.9286 30.072C98.347 30.072 98.7003 29.9861 98.9887 29.8144C99.277 29.6371 99.4212 29.4044 99.4212 29.1163C99.4212 28.8615 99.2996 28.662 99.0565 28.518C98.8191 28.3684 98.4968 28.2936 98.0897 28.2936H97.3774V27.9778H98.0728C98.429 27.9778 98.7201 27.9086 98.9463 27.7701C99.1781 27.6316 99.294 27.446 99.294 27.2133C99.294 26.9418 99.1668 26.7341 98.9123 26.59C98.6636 26.4404 98.3442 26.3657 97.9541 26.3657C97.4565 26.3657 96.9873 26.4903 96.5463 26.7396L96.4191 26.4072C96.9166 26.1357 97.4452 26 98.0049 26C98.4968 26 98.9067 26.1053 99.2346 26.3158C99.5625 26.5208 99.7265 26.8006 99.7265 27.1551C99.7265 27.3823 99.6445 27.5817 99.4805 27.7535C99.3166 27.9252 99.0989 28.0499 98.8275 28.1274Z" fill="black"/>
<path d="M101.332 26.0499H101.756V29.7479L104.911 26.0499H105.284V30.3878H104.86V26.6898L101.706 30.3878H101.332V26.0499Z" fill="black"/>
<path d="M107.113 26.0499H107.537V28.0277H110.539V26.0499H110.963V30.3878H110.539V28.3934H107.537V30.3878H107.113V26.0499Z" fill="black"/>
<path d="M116.736 30.4211C116.318 30.4211 115.939 30.3269 115.6 30.1385C115.266 29.9501 115.003 29.6898 114.811 29.3573C114.619 29.0194 114.523 28.6399 114.523 28.2188C114.523 27.7978 114.619 27.4211 114.811 27.0886C115.003 26.7507 115.266 26.4875 115.6 26.2992C115.939 26.1108 116.318 26.0166 116.736 26.0166C117.155 26.0166 117.531 26.1108 117.864 26.2992C118.203 26.4875 118.469 26.7507 118.661 27.0886C118.854 27.4211 118.95 27.7978 118.95 28.2188C118.95 28.6399 118.854 29.0194 118.661 29.3573C118.469 29.6898 118.203 29.9501 117.864 30.1385C117.531 30.3269 117.155 30.4211 116.736 30.4211ZM116.736 30.0471C117.076 30.0471 117.378 29.9695 117.644 29.8144C117.915 29.6593 118.127 29.4432 118.28 29.1662C118.438 28.8892 118.517 28.5734 118.517 28.2188C118.517 27.8643 118.438 27.5485 118.28 27.2715C118.127 26.9945 117.915 26.7784 117.644 26.6233C117.378 26.4681 117.076 26.3906 116.736 26.3906C116.397 26.3906 116.092 26.4681 115.82 26.6233C115.555 26.7784 115.343 26.9945 115.184 27.2715C115.032 27.5485 114.955 27.8643 114.955 28.2188C114.955 28.5734 115.032 28.8892 115.184 29.1662C115.343 29.4432 115.555 29.6593 115.82 29.8144C116.092 29.9695 116.397 30.0471 116.736 30.0471Z" fill="black"/>
<path d="M122.12 30.4211C121.69 30.4211 121.306 30.3269 120.967 30.1385C120.627 29.9501 120.362 29.6898 120.17 29.3573C119.977 29.0194 119.881 28.6399 119.881 28.2188C119.881 27.7922 119.977 27.4127 120.17 27.0803C120.362 26.7424 120.627 26.482 120.967 26.2992C121.306 26.1108 121.69 26.0166 122.12 26.0166C122.476 26.0166 122.798 26.0859 123.087 26.2244C123.381 26.3573 123.618 26.554 123.799 26.8144L123.485 27.0388C123.327 26.8227 123.129 26.662 122.892 26.5568C122.66 26.446 122.403 26.3906 122.12 26.3906C121.775 26.3906 121.464 26.4681 121.187 26.6233C120.916 26.7729 120.701 26.9861 120.543 27.2632C120.39 27.5402 120.314 27.8587 120.314 28.2188C120.314 28.5789 120.39 28.8975 120.543 29.1745C120.701 29.4515 120.916 29.6676 121.187 29.8227C121.464 29.9723 121.775 30.0471 122.12 30.0471C122.403 30.0471 122.66 29.9945 122.892 29.8892C123.129 29.7784 123.327 29.615 123.485 29.3989L123.799 29.6233C123.618 29.8837 123.381 30.0831 123.087 30.2216C122.798 30.3546 122.476 30.4211 122.12 30.4211Z" fill="black"/>
<path d="M127.672 28.1524C128.322 28.2632 128.647 28.6205 128.647 29.2244C128.647 29.6011 128.506 29.8892 128.223 30.0886C127.946 30.2881 127.528 30.3878 126.968 30.3878H125.051V26.0499H126.917C127.409 26.0499 127.793 26.1468 128.07 26.3407C128.353 26.5291 128.494 26.8006 128.494 27.1551C128.494 27.41 128.421 27.6233 128.274 27.795C128.132 27.9612 127.932 28.0803 127.672 28.1524ZM125.467 28.0277H126.891C127.27 28.0277 127.561 27.9584 127.765 27.8199C127.968 27.6759 128.07 27.4709 128.07 27.205C128.07 26.9335 127.968 26.7313 127.765 26.5983C127.567 26.4598 127.276 26.3906 126.891 26.3906H125.467V28.0277ZM126.959 30.0471C127.802 30.0471 128.223 29.7673 128.223 29.2078C128.223 28.9141 128.127 28.6981 127.935 28.5596C127.742 28.4211 127.44 28.3518 127.027 28.3518H125.467V30.0471H126.959Z" fill="black"/>
<path d="M133.927 28.3186H130.119C130.13 28.6565 130.218 28.9584 130.382 29.2244C130.546 29.4848 130.766 29.687 131.043 29.831C131.326 29.9751 131.642 30.0471 131.993 30.0471C132.281 30.0471 132.547 29.9972 132.79 29.8975C133.039 29.7922 133.245 29.6399 133.409 29.4404L133.655 29.7147C133.463 29.9418 133.22 30.1163 132.926 30.2382C132.638 30.3601 132.324 30.4211 131.985 30.4211C131.544 30.4211 131.151 30.3269 130.806 30.1385C130.461 29.9501 130.19 29.6898 129.992 29.3573C129.799 29.0249 129.703 28.6454 129.703 28.2188C129.703 27.7978 129.794 27.4211 129.975 27.0886C130.161 26.7507 130.416 26.4875 130.738 26.2992C131.06 26.1108 131.422 26.0166 131.823 26.0166C132.225 26.0166 132.584 26.1108 132.9 26.2992C133.223 26.482 133.474 26.7396 133.655 27.072C133.842 27.4044 133.935 27.7812 133.935 28.2022L133.927 28.3186ZM131.823 26.3823C131.512 26.3823 131.233 26.4515 130.984 26.59C130.735 26.723 130.534 26.9141 130.382 27.1634C130.235 27.4072 130.15 27.6842 130.127 27.9945H133.519C133.503 27.6842 133.418 27.4072 133.265 27.1634C133.112 26.9197 132.912 26.7285 132.663 26.59C132.414 26.4515 132.134 26.3823 131.823 26.3823Z" fill="black"/>
<path d="M141.274 26.0499V30.3878H135.321V26.0499H135.745V30.0222H138.094V26.0499H138.518V30.0222H140.85V26.0499H141.274ZM141.969 30.0222V31.3684H141.562V30.3878H140.816V30.0222H141.969Z" fill="black"/>
<path d="M146.879 28.3186H143.071C143.083 28.6565 143.17 28.9584 143.334 29.2244C143.498 29.4848 143.719 29.687 143.996 29.831C144.278 29.9751 144.595 30.0471 144.946 30.0471C145.234 30.0471 145.5 29.9972 145.743 29.8975C145.992 29.7922 146.198 29.6399 146.362 29.4404L146.608 29.7147C146.416 29.9418 146.172 30.1163 145.878 30.2382C145.59 30.3601 145.276 30.4211 144.937 30.4211C144.496 30.4211 144.103 30.3269 143.758 30.1385C143.413 29.9501 143.142 29.6898 142.944 29.3573C142.752 29.0249 142.656 28.6454 142.656 28.2188C142.656 27.7978 142.746 27.4211 142.927 27.0886C143.114 26.7507 143.368 26.4875 143.69 26.2992C144.013 26.1108 144.375 26.0166 144.776 26.0166C145.177 26.0166 145.536 26.1108 145.853 26.2992C146.175 26.482 146.427 26.7396 146.608 27.072C146.794 27.4044 146.888 27.7812 146.888 28.2022L146.879 28.3186ZM144.776 26.3823C144.465 26.3823 144.185 26.4515 143.936 26.59C143.688 26.723 143.487 26.9141 143.334 27.1634C143.187 27.4072 143.103 27.6842 143.08 27.9945H146.472C146.455 27.6842 146.37 27.4072 146.218 27.1634C146.065 26.9197 145.864 26.7285 145.616 26.59C145.367 26.4515 145.087 26.3823 144.776 26.3823Z" fill="black"/>
<path d="M148.273 26.0499H148.697V28.0277H151.699V26.0499H152.123V30.3878H151.699V28.3934H148.697V30.3878H148.273V26.0499Z" fill="black"/>
<path d="M153.954 26.0499H154.378V29.7479L157.533 26.0499H157.906V30.3878H157.482V26.6898L154.328 30.3878H153.954V26.0499Z" fill="black"/>
<path d="M163 26.0499V30.3878H162.61V28.892H161.134C161.033 28.892 160.959 28.8892 160.914 28.8837L159.82 30.3878H159.353L160.498 28.8338C160.136 28.7562 159.859 28.6039 159.667 28.3767C159.475 28.1496 159.379 27.856 159.379 27.4958C159.379 27.0194 159.54 26.6593 159.862 26.4155C160.19 26.1717 160.637 26.0499 161.202 26.0499H163ZM159.803 27.5125C159.803 28.2216 160.261 28.5762 161.177 28.5762H162.61V26.4155H161.228C160.278 26.4155 159.803 26.7812 159.803 27.5125Z" fill="black"/>
<path d="M49.3528 3.9V20H45.6728V6.936H40.1528L40.0378 10.294C39.9611 12.5787 39.7771 14.434 39.4858 15.86C39.1944 17.2707 38.7038 18.3593 38.0138 19.126C37.3391 19.8773 36.3884 20.253 35.1618 20.253C34.6558 20.253 34.0424 20.1687 33.3218 20L33.5518 16.849C33.7511 16.9103 33.9734 16.941 34.2188 16.941C35.1081 16.941 35.7291 16.4197 36.0818 15.377C36.4344 14.319 36.6568 12.6707 36.7488 10.432L36.9788 3.9H49.3528Z" fill="black"/>
<path d="M57.9048 7.442C59.8215 7.442 61.2935 7.902 62.3208 8.822C63.3482 9.72667 63.8618 11.099 63.8618 12.939V20H60.5038V18.459C59.8292 19.609 58.5718 20.184 56.7318 20.184C55.7812 20.184 54.9532 20.023 54.2478 19.701C53.5578 19.379 53.0288 18.9343 52.6608 18.367C52.2928 17.7997 52.1088 17.1557 52.1088 16.435C52.1088 15.285 52.5382 14.3803 53.3968 13.721C54.2708 13.0617 55.6125 12.732 57.4218 12.732H60.2738C60.2738 11.95 60.0362 11.352 59.5608 10.938C59.0855 10.5087 58.3725 10.294 57.4218 10.294C56.7625 10.294 56.1108 10.4013 55.4668 10.616C54.8382 10.8153 54.3015 11.0913 53.8568 11.444L52.5688 8.937C53.2435 8.46167 54.0485 8.09367 54.9838 7.833C55.9345 7.57234 56.9082 7.442 57.9048 7.442ZM57.6288 17.769C58.2422 17.769 58.7865 17.631 59.2618 17.355C59.7372 17.0637 60.0745 16.642 60.2738 16.09V14.825H57.8128C56.3408 14.825 55.6048 15.308 55.6048 16.274C55.6048 16.734 55.7812 17.102 56.1338 17.378C56.5018 17.6387 57.0002 17.769 57.6288 17.769Z" fill="black"/>
<path d="M79.0537 20V12.594L75.3507 18.804H73.8327L70.2217 12.571V20H66.9787V7.626H70.7277L74.6837 14.779L78.8927 7.626H82.2507L82.2967 20H79.0537Z" fill="black"/>
<path d="M98.0386 7.626V20H94.4506V10.57H89.2986V20H85.7336V7.626H98.0386Z" fill="black"/>
<path d="M107.275 20.184C105.971 20.184 104.798 19.9157 103.756 19.379C102.728 18.827 101.923 18.068 101.341 17.102C100.758 16.136 100.467 15.0397 100.467 13.813C100.467 12.5863 100.758 11.49 101.341 10.524C101.923 9.558 102.728 8.80667 103.756 8.27C104.798 7.718 105.971 7.442 107.275 7.442C108.578 7.442 109.743 7.718 110.771 8.27C111.798 8.80667 112.603 9.558 113.186 10.524C113.768 11.49 114.06 12.5863 114.06 13.813C114.06 15.0397 113.768 16.136 113.186 17.102C112.603 18.068 111.798 18.827 110.771 19.379C109.743 19.9157 108.578 20.184 107.275 20.184ZM107.275 17.24C108.195 17.24 108.946 16.9333 109.529 16.32C110.127 15.6913 110.426 14.8557 110.426 13.813C110.426 12.7703 110.127 11.9423 109.529 11.329C108.946 10.7003 108.195 10.386 107.275 10.386C106.355 10.386 105.596 10.7003 104.998 11.329C104.4 11.9423 104.101 12.7703 104.101 13.813C104.101 14.8557 104.4 15.6913 104.998 16.32C105.596 16.9333 106.355 17.24 107.275 17.24Z" fill="black"/>
<path d="M127.66 7.626V20H124.072V15.4C123.029 15.9213 121.879 16.182 120.622 16.182C118.95 16.182 117.685 15.8063 116.827 15.055C115.983 14.2883 115.562 13.1077 115.562 11.513V7.626H119.15V11.283C119.15 12.0343 119.341 12.5787 119.725 12.916C120.123 13.2533 120.691 13.422 121.427 13.422C122.362 13.422 123.244 13.2227 124.072 12.824V7.626H127.66Z" fill="black"/>
<path d="M136.556 15.308H134.693V20H131.105V7.626H134.693V12.433H136.625L139.983 7.626H143.801L139.477 13.56L144.1 20H139.868L136.556 15.308Z" fill="black"/>
<path d="M145.861 7.626H149.426V14.986L155.452 7.626H158.742V20H155.176V12.64L149.174 20H145.861V7.626Z" fill="black"/>
<path d="M163.479 20.184C162.85 20.184 162.321 19.9693 161.892 19.54C161.462 19.1107 161.248 18.574 161.248 17.93C161.248 17.2707 161.462 16.7417 161.892 16.343C162.321 15.929 162.85 15.722 163.479 15.722C164.107 15.722 164.636 15.929 165.066 16.343C165.495 16.7417 165.71 17.2707 165.71 17.93C165.71 18.574 165.495 19.1107 165.066 19.54C164.636 19.9693 164.107 20.184 163.479 20.184Z" fill="black"/>
<path d="M175.501 7.442C176.651 7.442 177.694 7.71034 178.629 8.247C179.58 8.76834 180.323 9.512 180.86 10.478C181.397 11.4287 181.665 12.5403 181.665 13.813C181.665 15.0857 181.397 16.205 180.86 17.171C180.323 18.1217 179.58 18.8653 178.629 19.402C177.694 19.9233 176.651 20.184 175.501 20.184C173.922 20.184 172.68 19.6857 171.775 18.689V24.462H168.187V7.626H171.614V9.052C172.503 7.97867 173.799 7.442 175.501 7.442ZM174.88 17.24C175.8 17.24 176.551 16.9333 177.134 16.32C177.732 15.6913 178.031 14.8557 178.031 13.813C178.031 12.7703 177.732 11.9423 177.134 11.329C176.551 10.7003 175.8 10.386 174.88 10.386C173.96 10.386 173.201 10.7003 172.603 11.329C172.02 11.9423 171.729 12.7703 171.729 13.813C171.729 14.8557 172.02 15.6913 172.603 16.32C173.201 16.9333 173.96 17.24 174.88 17.24Z" fill="black"/>
<path d="M196.24 7.626L190.651 20.759C190.084 22.185 189.378 23.1893 188.535 23.772C187.707 24.3547 186.703 24.646 185.522 24.646C184.878 24.646 184.242 24.5463 183.613 24.347C182.984 24.1477 182.471 23.8717 182.072 23.519L183.383 20.966C183.659 21.2113 183.973 21.403 184.326 21.541C184.694 21.679 185.054 21.748 185.407 21.748C185.898 21.748 186.296 21.6253 186.603 21.38C186.91 21.15 187.186 20.759 187.431 20.207L187.477 20.092L182.118 7.626H185.821L189.294 16.021L192.79 7.626H196.24Z" fill="black"/>
</svg>
